<svg width="24" height="24" viewBox="0 0 24 24" fill="none" xmlns="http://www.w3.org/2000/svg">
<path d="M19.5 1.5H4.5C4.08516 1.5 3.75 1.83516 3.75 2.25V7.5H20.25V2.25C20.25 1.83516 19.9148 1.5 19.5 1.5ZM6.75 5.4375C6.23203 5.4375 5.8125 5.01797 5.8125 4.5C5.8125 3.98203 6.23203 3.5625 6.75 3.5625C7.26797 3.5625 7.6875 3.98203 7.6875 4.5C7.6875 5.01797 7.26797 5.4375 6.75 5.4375ZM3.75 21.75C3.75 22.1648 4.08516 22.5 4.5 22.5H19.5C19.9148 22.5 20.25 22.1648 20.25 21.75V16.5H3.75V21.75ZM6.75 18.5625C7.26797 18.5625 7.6875 18.982 7.6875 19.5C7.6875 20.018 7.26797 20.4375 6.75 20.4375C6.23203 20.4375 5.8125 20.018 5.8125 19.5C5.8125 18.982 6.23203 18.5625 6.75 18.5625ZM3.75 15H20.25V9H3.75V15ZM6.75 11.0625C7.26797 11.0625 7.6875 11.482 7.6875 12C7.6875 12.518 7.26797 12.9375 6.75 12.9375C6.23203 12.9375 5.8125 12.518 5.8125 12C5.8125 11.482 6.23203 11.0625 6.75 11.0625Z" fill="#A0AEC0"/>
</svg>
