<svg width="139" height="119" viewBox="0 0 139 119" fill="none" xmlns="http://www.w3.org/2000/svg">
<path d="M136.136 71.0033L76.9181 35.7C75.3748 34.7947 73.6315 34.2085 71.8291 33.9389V27.6266C79.7324 26.6795 85.7083 20.9438 85.7083 13.8833C85.7083 6.14826 78.5375 0 69.516 0C60.4944 0 53.3236 6.14826 53.3236 13.8833C53.3236 15.0733 54.2488 15.8665 55.6367 15.8665C57.0246 15.8665 57.9498 15.0733 57.9498 13.8833C57.9498 8.33 63.0388 3.96651 69.516 3.96651C75.9929 3.96651 81.0821 8.32977 81.0821 13.8833C81.0821 19.4367 75.9931 23.8 69.516 23.8C68.128 23.8 67.2028 24.5933 67.2028 25.7833V33.9389C65.4004 34.2085 63.6571 34.7945 62.1139 35.7L2.89526 71.0033C0.350644 72.59 -0.57455 74.97 0.350643 77.35C1.27584 79.73 3.58923 81.3167 6.59631 81.3167H23.2514V101.15V113.05C23.2514 116.422 26.2585 119 30.191 119H94.9608C98.8934 119 101.9 116.422 101.9 113.05V111.067H113.467C117.399 111.067 120.406 108.488 120.406 105.315V81.3165H132.435C135.211 81.3165 137.755 79.7298 138.68 77.3498C139.606 74.97 138.45 72.3915 136.136 71.0033ZM101.915 77.35C102.066 75.0314 103.529 73.0421 105.597 72.0543C106.473 71.6717 107.466 71.443 108.533 71.4063C110.281 71.459 112.175 71.8788 113.467 72.9867C114.855 73.9785 115.78 75.7635 115.78 77.35H101.915ZM97.2742 77.35V77.7467V99.1667H27.8779V79.3335V77.3502C27.8779 73.9785 30.885 71.4002 34.8176 71.4002H99.5873C98.1997 72.9865 97.2742 75.1683 97.2742 77.35ZM97.2742 113.05C97.2742 114.24 96.349 115.033 94.9611 115.033H30.1913C28.8034 115.033 27.8782 114.24 27.8782 113.05V103.133H97.2745V109.083V113.05H97.2742ZM113.467 107.1H101.901V101.15V81.3167H115.78V105.117C115.78 106.307 114.855 107.1 113.467 107.1ZM134.286 76.16C134.055 76.5567 133.823 77.35 132.435 77.35H120.406C120.406 71.7967 115.318 67.4333 108.84 67.4333H34.8176C28.3407 67.4333 23.2514 71.7965 23.2514 77.35H6.59631C5.20838 77.35 4.74565 76.3583 4.74565 76.16C4.74565 75.9617 4.51442 74.97 5.67084 74.375L64.6577 38.8733C65.8987 38.0754 67.3709 37.6763 68.8675 37.6179C69.0698 37.6595 69.2855 37.6833 69.5154 37.6833C69.7022 37.6833 69.8798 37.6677 70.0486 37.64C71.5049 37.7553 72.9332 38.1823 74.1419 38.8733L133.591 74.375C134.517 74.97 134.286 75.9615 134.286 76.16Z" fill="#2D3748"/>
</svg>
