<svg width="220" height="486" viewBox="0 0 220 486" fill="none" xmlns="http://www.w3.org/2000/svg">
<g opacity="0.5">
<path opacity="0.2" fill-rule="evenodd" clip-rule="evenodd" d="M217.595 242.666C217.595 375.582 109.845 483.332 -23.071 483.332C-155.987 483.332 -263.737 375.582 -263.737 242.666C-263.737 109.75 -155.987 2 -23.071 2C39.8412 2 97.1152 26.1397 139.994 65.6618C139.174 67.1127 138.706 68.789 138.706 70.5745C138.706 76.0974 143.183 80.5745 148.706 80.5745C150.498 80.5745 152.18 80.1032 153.635 79.2776C193.334 122.192 217.595 179.595 217.595 242.666ZM141.158 64.0148C142.991 61.907 145.693 60.5745 148.706 60.5745C154.229 60.5745 158.706 65.0517 158.706 70.5745C158.706 73.581 157.379 76.2775 155.279 78.1107C195.204 121.361 219.595 179.165 219.595 242.666C219.595 376.686 110.95 485.332 -23.071 485.332C-157.092 485.332 -265.737 376.686 -265.737 242.666C-265.737 108.645 -157.092 0 -23.071 0C40.2705 0 97.9439 24.2686 141.158 64.0148ZM59.8574 398.525C35.1335 411.707 6.90369 419.179 -23.0712 419.179C-120.557 419.179 -199.584 340.151 -199.584 242.666C-199.584 145.181 -120.557 66.1531 -23.0712 66.1531C74.4141 66.1531 153.442 145.181 153.442 242.666C153.442 303.16 123.01 356.547 76.6195 388.352C74.7923 386.37 72.1742 385.129 69.2661 385.129C63.7433 385.129 59.2661 389.606 59.2661 395.129C59.2661 396.321 59.4747 397.464 59.8574 398.525ZM60.7233 400.33C35.7368 413.637 7.21353 421.179 -23.0712 421.179C-121.661 421.179 -201.584 341.256 -201.584 242.666C-201.584 144.076 -121.661 64.1531 -23.0712 64.1531C75.5187 64.1531 155.442 144.076 155.442 242.666C155.442 303.813 124.697 357.78 77.8233 389.952C78.739 391.462 79.2661 393.234 79.2661 395.129C79.2661 400.652 74.789 405.129 69.2661 405.129C65.6483 405.129 62.4791 403.208 60.7233 400.33ZM-23.0707 343.868C32.822 343.868 78.132 298.559 78.132 242.666C78.132 236.282 77.5408 230.035 76.4102 223.979C75.7029 224.138 74.9672 224.221 74.2119 224.221C68.6891 224.221 64.2119 219.744 64.2119 214.221C64.2119 209.891 66.9644 206.204 70.8153 204.813C55.8267 167.672 19.4387 141.463 -23.0707 141.463C-78.9635 141.463 -124.273 186.773 -124.273 242.666C-124.273 298.559 -78.9635 343.868 -23.0707 343.868ZM80.132 242.666C80.132 236.06 79.5114 229.6 78.3253 223.339C81.7964 221.771 84.2119 218.278 84.2119 214.221C84.2119 208.699 79.7348 204.221 74.2119 204.221C73.7239 204.221 73.2441 204.256 72.7748 204.324C57.5548 166.312 20.3775 139.463 -23.0707 139.463C-80.068 139.463 -126.273 185.669 -126.273 242.666C-126.273 299.663 -80.068 345.868 -23.0707 345.868C33.9265 345.868 80.132 299.663 80.132 242.666Z" fill="url(#paint0_linear_42_5999)"/>
</g>
<defs>
<linearGradient id="paint0_linear_42_5999" x1="-23.3368" y1="-131.3" x2="-47.2579" y2="663.41" gradientUnits="userSpaceOnUse">
<stop stop-color="white"/>
<stop offset="1" stop-color="white" stop-opacity="0"/>
</linearGradient>
</defs>
</svg>
