<svg width="546" height="800" viewBox="0 0 546 800" fill="none" xmlns="http://www.w3.org/2000/svg">
<g opacity="0.5">
<g opacity="0.3" filter="url(#filter0_f_42_5999)">
<path d="M139.296 612.562C139.296 730.988 -53.5956 708.249 -207.411 708.249C-361.226 708.249 -305.683 703.778 -319 368.872C-319 243.674 -121.516 290.623 32.2991 290.623C186.114 290.623 139.296 494.137 139.296 612.562Z" fill="#E9D8FD"/>
</g>
<path opacity="0.2" fill-rule="evenodd" clip-rule="evenodd" d="M217.595 480.666C217.595 613.582 109.845 721.332 -23.071 721.332C-155.987 721.332 -263.737 613.582 -263.737 480.666C-263.737 347.75 -155.987 240 -23.071 240C39.8412 240 97.1152 264.14 139.994 303.662C139.174 305.113 138.706 306.789 138.706 308.575C138.706 314.097 143.183 318.575 148.706 318.575C150.498 318.575 152.18 318.103 153.635 317.278C193.334 360.192 217.595 417.595 217.595 480.666ZM141.158 302.015C142.991 299.907 145.693 298.575 148.706 298.575C154.229 298.575 158.706 303.052 158.706 308.575C158.706 311.581 157.379 314.278 155.279 316.111C195.204 359.361 219.595 417.165 219.595 480.666C219.595 614.686 110.95 723.332 -23.071 723.332C-157.092 723.332 -265.737 614.686 -265.737 480.666C-265.737 346.645 -157.092 238 -23.071 238C40.2705 238 97.9439 262.269 141.158 302.015ZM59.8574 636.525C35.1335 649.707 6.90369 657.179 -23.0712 657.179C-120.557 657.179 -199.584 578.151 -199.584 480.666C-199.584 383.181 -120.557 304.153 -23.0712 304.153C74.4141 304.153 153.442 383.181 153.442 480.666C153.442 541.16 123.01 594.547 76.6195 626.352C74.7923 624.37 72.1742 623.129 69.2661 623.129C63.7433 623.129 59.2661 627.606 59.2661 633.129C59.2661 634.321 59.4747 635.464 59.8574 636.525ZM60.7233 638.33C35.7368 651.637 7.21353 659.179 -23.0712 659.179C-121.661 659.179 -201.584 579.256 -201.584 480.666C-201.584 382.076 -121.661 302.153 -23.0712 302.153C75.5187 302.153 155.442 382.076 155.442 480.666C155.442 541.813 124.697 595.78 77.8233 627.952C78.739 629.462 79.2661 631.234 79.2661 633.129C79.2661 638.652 74.789 643.129 69.2661 643.129C65.6483 643.129 62.4791 641.208 60.7233 638.33ZM-23.0707 581.868C32.822 581.868 78.132 536.559 78.132 480.666C78.132 474.282 77.5408 468.035 76.4102 461.979C75.7029 462.138 74.9672 462.221 74.2119 462.221C68.6891 462.221 64.2119 457.744 64.2119 452.221C64.2119 447.891 66.9644 444.204 70.8153 442.813C55.8267 405.672 19.4387 379.463 -23.0707 379.463C-78.9635 379.463 -124.273 424.773 -124.273 480.666C-124.273 536.559 -78.9635 581.868 -23.0707 581.868ZM80.132 480.666C80.132 474.06 79.5114 467.6 78.3253 461.339C81.7964 459.771 84.2119 456.278 84.2119 452.221C84.2119 446.699 79.7348 442.221 74.2119 442.221C73.7239 442.221 73.2441 442.256 72.7748 442.324C57.5548 404.312 20.3775 377.463 -23.0707 377.463C-80.068 377.463 -126.273 423.669 -126.273 480.666C-126.273 537.663 -80.068 583.868 -23.0707 583.868C33.9265 583.868 80.132 537.663 80.132 480.666Z" fill="url(#paint0_linear_42_5999)"/>
</g>
<defs>
<filter id="filter0_f_42_5999" x="-719" y="-118" width="1265" height="1228" filterUnits="userSpaceOnUse" color-interpolation-filters="sRGB">
<feFlood flood-opacity="0" result="BackgroundImageFix"/>
<feBlend mode="normal" in="SourceGraphic" in2="BackgroundImageFix" result="shape"/>
<feGaussianBlur stdDeviation="200" result="effect1_foregroundBlur_42_5999"/>
</filter>
<linearGradient id="paint0_linear_42_5999" x1="-23.3368" y1="106.7" x2="-47.2579" y2="901.41" gradientUnits="userSpaceOnUse">
<stop stop-color="white"/>
<stop offset="1" stop-color="white" stop-opacity="0"/>
</linearGradient>
</defs>
</svg>
