<svg width="217" height="486" viewBox="0 0 217 486" fill="none" xmlns="http://www.w3.org/2000/svg">
<g opacity="0.5">
<path opacity="0.2" fill-rule="evenodd" clip-rule="evenodd" d="M1.99997 242.666C1.99997 375.582 109.75 483.332 242.666 483.332C375.582 483.332 483.332 375.582 483.332 242.666C483.332 109.75 375.582 2 242.666 2C179.754 2 122.479 26.1397 79.6007 65.6618C80.4207 67.1127 80.8887 68.789 80.8887 70.5745C80.8887 76.0974 76.4115 80.5745 70.8887 80.5745C69.0966 80.5745 67.4147 80.1032 65.9601 79.2776C26.2612 122.192 1.99997 179.595 1.99997 242.666ZM78.4367 64.0148C76.6034 61.907 73.9016 60.5745 70.8887 60.5745C65.3658 60.5745 60.8887 65.0517 60.8887 70.5745C60.8887 73.581 62.2154 76.2775 64.3153 78.1107C24.3909 121.361 -3.05176e-05 179.165 -3.05176e-05 242.666C-3.05176e-05 376.686 108.645 485.332 242.666 485.332C376.686 485.332 485.332 376.686 485.332 242.666C485.332 108.645 376.686 0 242.666 0C179.324 0 121.651 24.2686 78.4367 64.0148ZM159.737 398.525C184.461 411.707 212.691 419.179 242.666 419.179C340.151 419.179 419.179 340.151 419.179 242.666C419.179 145.181 340.151 66.1531 242.666 66.1531C145.181 66.1531 66.1532 145.181 66.1532 242.666C66.1532 303.16 96.5851 356.547 142.975 388.352C144.802 386.37 147.421 385.129 150.329 385.129C155.851 385.129 160.329 389.606 160.329 395.129C160.329 396.321 160.12 397.464 159.737 398.525ZM158.871 400.33C183.858 413.637 212.381 421.179 242.666 421.179C341.256 421.179 421.179 341.256 421.179 242.666C421.179 144.076 341.256 64.1531 242.666 64.1531C144.076 64.1531 64.1532 144.076 64.1532 242.666C64.1532 303.813 94.8975 357.78 141.771 389.952C140.856 391.462 140.329 393.234 140.329 395.129C140.329 400.652 144.806 405.129 150.329 405.129C153.946 405.129 157.116 403.208 158.871 400.33ZM242.665 343.868C186.773 343.868 141.463 298.559 141.463 242.666C141.463 236.282 142.054 230.035 143.184 223.979C143.892 224.138 144.628 224.221 145.383 224.221C150.906 224.221 155.383 219.744 155.383 214.221C155.383 209.891 152.63 206.204 148.779 204.813C163.768 167.672 200.156 141.463 242.665 141.463C298.558 141.463 343.868 186.773 343.868 242.666C343.868 298.559 298.558 343.868 242.665 343.868ZM139.463 242.666C139.463 236.06 140.083 229.6 141.269 223.339C137.798 221.771 135.383 218.278 135.383 214.221C135.383 208.699 139.86 204.221 145.383 204.221C145.871 204.221 146.351 204.256 146.82 204.324C162.04 166.312 199.217 139.463 242.665 139.463C299.663 139.463 345.868 185.669 345.868 242.666C345.868 299.663 299.663 345.868 242.665 345.868C185.668 345.868 139.463 299.663 139.463 242.666Z" fill="url(#paint0_linear_42_6009)"/>
</g>
<defs>
<linearGradient id="paint0_linear_42_6009" x1="242.932" y1="-131.3" x2="266.853" y2="663.41" gradientUnits="userSpaceOnUse">
<stop stop-color="white"/>
<stop offset="1" stop-color="white" stop-opacity="0"/>
</linearGradient>
</defs>
</svg>
