<svg width="543" height="800" viewBox="0 0 543 800" fill="none" xmlns="http://www.w3.org/2000/svg">
<g opacity="0.5">
<g opacity="0.3" filter="url(#filter0_f_42_6009)">
<path d="M406.142 603.53C406.142 712.271 582.855 691.393 723.77 691.393C864.684 691.393 813.8 687.287 826 379.768C826 264.808 645.079 307.918 504.165 307.918C363.25 307.918 406.142 494.789 406.142 603.53Z" fill="#E9D8FD"/>
</g>
<path opacity="0.2" fill-rule="evenodd" clip-rule="evenodd" d="M328 480.666C328 613.582 435.75 721.332 568.666 721.332C701.582 721.332 809.332 613.582 809.332 480.666C809.332 347.75 701.582 240 568.666 240C505.754 240 448.479 264.14 405.601 303.662C406.421 305.113 406.889 306.789 406.889 308.575C406.889 314.097 402.412 318.575 396.889 318.575C395.097 318.575 393.415 318.103 391.96 317.278C352.261 360.192 328 417.595 328 480.666ZM404.437 302.015C402.603 299.907 399.902 298.575 396.889 298.575C391.366 298.575 386.889 303.052 386.889 308.575C386.889 311.581 388.215 314.278 390.315 316.111C350.391 359.361 326 417.165 326 480.666C326 614.686 434.645 723.332 568.666 723.332C702.686 723.332 811.332 614.686 811.332 480.666C811.332 346.645 702.686 238 568.666 238C505.324 238 447.651 262.269 404.437 302.015ZM485.737 636.525C510.461 649.707 538.691 657.179 568.666 657.179C666.151 657.179 745.179 578.151 745.179 480.666C745.179 383.181 666.151 304.153 568.666 304.153C471.181 304.153 392.153 383.181 392.153 480.666C392.153 541.16 422.585 594.547 468.975 626.352C470.802 624.37 473.421 623.129 476.329 623.129C481.851 623.129 486.329 627.606 486.329 633.129C486.329 634.321 486.12 635.464 485.737 636.525ZM484.871 638.33C509.858 651.637 538.381 659.179 568.666 659.179C667.256 659.179 747.179 579.256 747.179 480.666C747.179 382.076 667.256 302.153 568.666 302.153C470.076 302.153 390.153 382.076 390.153 480.666C390.153 541.813 420.897 595.78 467.771 627.952C466.856 629.462 466.329 631.234 466.329 633.129C466.329 638.652 470.806 643.129 476.329 643.129C479.946 643.129 483.116 641.208 484.871 638.33ZM568.665 581.868C512.773 581.868 467.463 536.559 467.463 480.666C467.463 474.282 468.054 468.035 469.184 461.979C469.892 462.138 470.628 462.221 471.383 462.221C476.906 462.221 481.383 457.744 481.383 452.221C481.383 447.891 478.63 444.204 474.779 442.813C489.768 405.672 526.156 379.463 568.665 379.463C624.558 379.463 669.868 424.773 669.868 480.666C669.868 536.559 624.558 581.868 568.665 581.868ZM465.463 480.666C465.463 474.06 466.083 467.6 467.269 461.339C463.798 459.771 461.383 456.278 461.383 452.221C461.383 446.699 465.86 442.221 471.383 442.221C471.871 442.221 472.351 442.256 472.82 442.324C488.04 404.312 525.217 377.463 568.665 377.463C625.663 377.463 671.868 423.669 671.868 480.666C671.868 537.663 625.663 583.868 568.665 583.868C511.668 583.868 465.463 537.663 465.463 480.666Z" fill="url(#paint0_linear_42_6009)"/>
</g>
<defs>
<filter id="filter0_f_42_6009" x="0" y="-100" width="1226" height="1193" filterUnits="userSpaceOnUse" color-interpolation-filters="sRGB">
<feFlood flood-opacity="0" result="BackgroundImageFix"/>
<feBlend mode="normal" in="SourceGraphic" in2="BackgroundImageFix" result="shape"/>
<feGaussianBlur stdDeviation="200" result="effect1_foregroundBlur_42_6009"/>
</filter>
<linearGradient id="paint0_linear_42_6009" x1="568.932" y1="106.7" x2="592.853" y2="901.41" gradientUnits="userSpaceOnUse">
<stop stop-color="white"/>
<stop offset="1" stop-color="white" stop-opacity="0"/>
</linearGradient>
</defs>
</svg>
