<svg width="24" height="24" viewBox="0 0 24 24" fill="none" xmlns="http://www.w3.org/2000/svg">
<path fill-rule="evenodd" clip-rule="evenodd" d="M19.2191 2.38755C19.4381 2.29682 19.6729 2.25012 19.91 2.25012C20.147 2.25012 20.3818 2.29682 20.6008 2.38755C20.8198 2.47827 21.0188 2.61124 21.1864 2.77887C21.1864 2.77886 21.1864 2.77889 21.1864 2.77887L21.2216 2.81403C21.5598 3.15252 21.7501 3.61174 21.7501 4.09026C21.7501 4.56879 21.5601 5.02773 21.2218 5.36623L20.6689 5.91915C20.2662 6.32188 19.6132 6.32188 19.2105 5.91915L18.0808 4.78947C17.8874 4.59602 17.7787 4.33362 17.7788 4.06004C17.7788 3.78646 17.8876 3.52412 18.0811 3.33075L18.6334 2.77891C18.6333 2.77903 18.6336 2.7788 18.6334 2.77891C18.801 2.61143 19.0002 2.47822 19.2191 2.38755ZM16.8097 5.0287C17.0834 5.02853 17.346 5.13719 17.5395 5.33075L18.6692 6.46043C18.8628 6.65399 18.9714 6.91655 18.9713 7.19027C18.9711 7.464 18.8621 7.72642 18.6683 7.91974L5.88084 20.6758C5.78502 20.7714 5.67133 20.8472 5.54625 20.8989L3.675 21.6718C3.28983 21.8309 2.84675 21.7426 2.55208 21.4479C2.2574 21.1532 2.16904 20.7102 2.32815 20.325L3.10112 18.4537C3.15278 18.3286 3.22857 18.215 3.32415 18.1191L16.0802 5.33164C16.2736 5.13785 16.536 5.02887 16.8097 5.0287Z" fill="#CBD5E0"/>
</svg>
