<svg width="136" height="119" viewBox="0 0 136 119" fill="none" xmlns="http://www.w3.org/2000/svg">
<g clip-path="url(#clip0_164_90)">
<path d="M18.1333 43.6333C18.1333 44.6854 17.6557 45.6943 16.8056 46.4382C15.9554 47.1821 14.8023 47.6 13.6 47.6C12.3977 47.6 11.2446 47.1821 10.3944 46.4382C9.54428 45.6943 9.06667 44.6854 9.06667 43.6333C9.06667 42.5813 9.54428 41.5724 10.3944 40.8285C11.2446 40.0846 12.3977 39.6667 13.6 39.6667C14.8023 39.6667 15.9554 40.0846 16.8056 40.8285C17.6557 41.5724 18.1333 42.5813 18.1333 43.6333ZM34 87.2667C30.9627 87.2667 28.3968 89.0596 27.5355 91.4832L15.4949 93.2405C14.3979 93.3991 13.6 94.2321 13.6 95.2V107.1C13.6 108.072 14.3979 108.901 15.4949 109.06L27.5355 110.817C28.3968 113.236 30.9627 115.033 34 115.033H52.1333C55.1707 115.033 57.7365 113.24 58.5979 110.817L70.6384 109.06C71.7355 108.901 72.5333 108.068 72.5333 107.1V95.2C72.5333 94.2282 71.7355 93.3991 70.6384 93.2405L58.5979 91.4793C57.7365 89.0636 55.1707 87.2667 52.1333 87.2667H34ZM34 91.2333H52.1333C53.4299 91.2333 54.4 92.0822 54.4 93.2167V109.083C54.4 110.218 53.4299 111.067 52.1333 111.067H34C32.7035 111.067 31.7333 110.218 31.7333 109.083V93.2167C31.7333 92.0822 32.7035 91.2333 34 91.2333ZM27.2 95.5649V106.735L18.1333 105.418V96.8819L27.2 95.5649ZM58.9333 95.5649L68 96.8819V105.418L58.9333 106.735V95.5649ZM24.9333 11.9C23.6821 11.9 22.6667 12.7885 22.6667 13.8833V73.3833C22.6667 74.4781 23.6821 75.3667 24.9333 75.3667H74.8C77.8373 75.3667 77.7648 71.4 74.8 71.4H27.2V15.8667H108.8V33.7167C108.8 36.3347 113.333 36.3743 113.333 33.7167V13.8833C113.333 12.7885 112.318 11.9 111.067 11.9H24.9333ZM6.8 3.96667C3.0736 3.96667 0 6.65607 0 9.91667V77.35C0 80.6106 3.0736 83.3 6.8 83.3H74.8C77.8373 83.3 77.792 79.3333 74.8 79.3333H6.8C5.50347 79.3333 4.53333 78.4845 4.53333 77.35V9.91667C4.53333 8.78221 5.50347 7.93334 6.8 7.93334H115.6C116.897 7.93334 117.867 8.78221 117.867 9.91667V33.7167C117.867 36.4021 122.4 36.3347 122.4 33.7167V9.91667C122.4 6.65607 119.326 3.96667 115.6 3.96667H6.8ZM102 47.6H115.6C116.856 47.6 117.867 48.4846 117.867 49.5833C117.867 50.6821 116.856 51.5667 115.6 51.5667H102C100.744 51.5667 99.7333 50.6821 99.7333 49.5833C99.7333 48.4846 100.744 47.6 102 47.6ZM88.4 39.6667C84.6736 39.6667 81.6 42.3561 81.6 45.6167V109.083C81.6 112.344 84.6736 115.033 88.4 115.033H129.2C132.926 115.033 136 112.344 136 109.083V45.6167C136 42.3561 132.926 39.6667 129.2 39.6667H88.4ZM88.4 43.6333H129.2C130.497 43.6333 131.467 44.4822 131.467 45.6167V109.083C131.467 110.218 130.497 111.067 129.2 111.067H88.4C87.1035 111.067 86.1333 110.218 86.1333 109.083V45.6167C86.1333 44.4822 87.1035 43.6333 88.4 43.6333ZM108.8 99.1667C111.311 99.1667 113.333 100.936 113.333 103.133C113.333 105.331 111.311 107.1 108.8 107.1C106.289 107.1 104.267 105.331 104.267 103.133C104.267 100.936 106.289 99.1667 108.8 99.1667Z" fill="#718096"/>
</g>
<defs>
<clipPath id="clip0_164_90">
<rect width="136" height="119" fill="white"/>
</clipPath>
</defs>
</svg>
