<svg width="128" height="117" viewBox="0 0 128 117" fill="none" xmlns="http://www.w3.org/2000/svg">
<g clip-path="url(#clip0_165_152)">
<path d="M101.396 1.18066C102.292 0.295167 103.792 0.238038 104.76 1.05689C105.729 1.87573 105.792 3.24683 104.896 4.13232L85.3958 23.4229L85.3646 23.4609C82.9791 26.0984 81.3437 28.5359 80.6146 30.7639C79.9687 32.7349 80.0625 34.5249 81.0208 36.0864C81.5312 36.9243 81.3646 37.9526 80.6875 38.6287L71.4271 47.7883C70.5208 46.8838 69.8021 46.1506 69.3229 45.6746C69.1042 45.408 68.8541 45.1509 68.5937 44.9033L68.5729 44.9224C68.4479 44.7986 68.3125 44.6843 68.1771 44.5701L76.0937 36.7339C75.1667 34.4678 75.1771 32.0588 76.0312 29.4976C76.9479 26.7173 78.8958 23.7561 81.6979 20.6711C81.7604 20.595 81.8125 20.5188 81.8854 20.4521L101.375 1.16162L101.396 1.18066ZM59.5104 52.8538C58.6354 51.9587 58.7187 50.5781 59.6979 49.7783C60.6771 48.9785 62.1875 49.0547 63.0625 49.9497C72.8646 59.9853 103.167 89.6829 111.562 100.785C122.635 115.115 105.49 119.628 99.8021 114.41C85.5937 101.851 55.4271 69.8306 42.1667 56.2529C37.3958 58.1001 32.7604 58.3857 28.1042 57.167C23.0937 55.8625 18.1875 52.8061 13.2083 48.1121L13.1458 48.0549C9.35416 44.3987 6.38541 40.79 4.23958 37.2195C2.04166 33.5442 0.697908 29.907 0.218742 26.2983C-0.291675 22.4136 0.104159 18.7954 1.24999 15.5867C2.59374 11.8162 4.97916 8.62646 8.10416 6.25562C11.25 3.87524 15.1146 2.33276 19.4271 1.85669C23.0104 1.46631 26.9167 1.79956 30.9583 3.00879C36.5521 4.67505 43.0729 8.81689 48.4792 14.1299C52.4687 18.0432 55.8854 22.623 57.9167 27.3362C60.0312 32.2493 60.6771 37.3337 58.9792 42.0945C57.9792 44.9128 56.1667 47.5598 53.3542 49.9497C52.3854 50.7685 50.8854 50.7114 49.9896 49.8354C49.0937 48.9499 49.1562 47.5789 50.1146 46.76C52.2917 44.9033 53.6875 42.8752 54.4479 40.7329C55.7604 37.0481 55.2083 32.9634 53.4792 28.9453C51.6667 24.7368 48.5937 20.6235 44.9896 17.0911C40.1146 12.3113 34.3333 8.60742 29.4583 7.15064C26.1146 6.1604 22.9167 5.87476 19.9896 6.19849C16.5937 6.57935 13.5521 7.76953 11.125 9.62622C8.68749 11.4829 6.82291 13.9871 5.74999 16.9673C4.82291 19.5667 4.49999 22.5564 4.92708 25.7842C5.33333 28.8311 6.48957 31.9446 8.38541 35.1248C10.375 38.3906 13.1042 41.6946 16.6146 45.0747L16.6354 45.1033C21.0312 49.2451 25.25 51.9111 29.4271 52.9966C33.375 54.0249 37.3958 53.625 41.5937 51.7112C42.5521 51.2065 43.7917 51.3779 44.5521 52.1587C57.4896 65.4031 88.9583 98.7378 102.896 111.087C108.948 113.344 112.302 110.563 109.406 105.66C104.896 98.0046 66.1458 59.6711 59.5104 52.8538ZM46.9479 72.0015L16.5729 102.042C16.5104 102.099 16.4583 102.156 16.3854 102.213C11.9479 106.593 19.8021 112.972 24.6771 108.707L54.1771 79.5234L57.3437 82.8083L28.0729 111.763C28.0104 111.83 27.9479 111.887 27.8646 111.954C26.1146 113.296 24.3542 114.172 22.5729 114.534C20.7396 114.915 18.9375 114.743 17.2083 114.001C16.9167 113.896 16.6458 113.763 16.4062 113.563L12.2083 110.011C12.1458 109.954 12.0833 109.906 12.0208 109.84C10.3958 108.126 9.62499 106.298 9.83332 104.365C10.0312 102.537 11.0937 100.756 13.1042 99.0425L43.7708 68.707L46.9479 72.0015ZM78.7812 55.1865L80.5833 53.406C81.4792 52.5205 82.9896 52.4634 83.9479 53.2822C84.9062 54.1011 84.9792 55.4722 84.0833 56.3577L82 58.4143L78.7812 55.1865ZM108.802 7.55054C109.698 6.66504 111.198 6.60791 112.167 7.42676C113.135 8.24561 113.198 9.6167 112.302 10.5022L95.2083 27.4219C94.3125 28.3074 92.8125 28.3645 91.8437 27.5457C90.875 26.7268 90.8125 25.3557 91.7083 24.4702L108.802 7.55054ZM116.198 13.8062C117.094 12.9207 118.594 12.8635 119.562 13.6824C120.531 14.5012 120.594 15.8723 119.698 16.7578L102.615 33.668C101.719 34.5535 100.219 34.6106 99.25 33.7917C98.2812 32.9729 98.2187 31.6018 99.1146 30.7163L116.198 13.8062ZM123.865 20.3093C124.76 19.4238 126.26 19.3667 127.229 20.1855C128.198 21.0044 128.26 22.385 127.365 23.261L107.865 42.561C107.792 42.6277 107.719 42.6848 107.646 42.7515C103.208 46.6553 98.9687 48.9119 94.9167 49.5498C90.5208 50.2449 86.4896 49.1023 82.7917 46.1506C81.8021 45.3603 81.7083 43.9797 82.5625 43.0847C83.4271 42.1802 84.9375 42.0945 85.9167 42.8752C88.4687 44.9128 91.1979 45.7126 94.0833 45.2461C97.1875 44.7605 100.604 42.8848 104.333 39.5999L104.354 39.5808L123.844 20.2998L123.865 20.3093Z" fill="#718096"/>
</g>
<defs>
<clipPath id="clip0_165_152">
<rect width="128" height="117" fill="white"/>
</clipPath>
</defs>
</svg>
