<svg width="140" height="121" viewBox="0 0 140 121" fill="none" xmlns="http://www.w3.org/2000/svg">
<mask id="path-1-outside-1_165_124" maskUnits="userSpaceOnUse" x="25.6001" y="3.84" width="89" height="113" fill="black">
<rect fill="white" x="25.6001" y="3.84" width="89" height="113"/>
<path d="M112.7 43.681C112.28 43.439 111.72 43.439 111.3 43.681L110.6 44.165C110.04 39.688 107.52 35.695 103.6 32.912C103.6 32.791 103.6 32.67 103.6 32.67C103.74 32.065 107.1 30.734 110.88 30.25C111.44 30.129 111.86 29.887 112 29.403C112.14 28.919 112 28.556 111.72 28.193L107.52 24.563C107.24 24.321 106.68 24.2 106.26 24.2C103.32 24.805 101.5 26.257 100.24 27.709C100.24 21.296 94.7801 18.392 94.7801 18.271C94.3601 18.029 93.9401 18.029 93.5201 18.15C93.1001 18.271 92.8201 18.634 92.6801 18.997C91.1401 23.595 92.4001 26.983 93.9401 29.161C93.1001 29.161 92.4001 29.04 91.7001 29.04C90.4401 25.652 87.6401 22.99 84.0001 21.538C85.9601 20.691 88.4801 19.36 90.7201 17.424C95.3401 13.431 96.8801 8.591 97.0201 8.349C97.1601 7.986 97.0201 7.502 96.6001 7.139C96.1801 6.776 95.7601 6.655 95.2001 6.776C94.9201 6.776 89.3201 8.228 84.7001 12.221C82.3201 14.278 80.7801 16.577 79.8001 18.392C78.8201 16.577 77.2801 14.278 74.9001 12.221C70.2801 8.47 64.5401 7.018 64.4001 6.897C63.8401 6.776 63.4201 6.897 63.0001 7.26C62.5801 7.623 62.4401 7.986 62.5801 8.47C62.5801 8.591 62.8601 9.317 63.4201 10.406C59.9201 7.018 54.7401 4.84 49.0001 4.84C38.2201 4.84 29.4001 12.463 29.4001 21.78V44.165L28.8401 43.802C28.4201 43.56 27.8601 43.56 27.4401 43.681C26.8801 43.923 26.6001 44.286 26.6001 44.77V114.95C26.6001 115.676 27.1601 116.16 28.0001 116.16H112C112.84 116.16 113.4 115.676 113.4 114.95V44.77C113.4 44.286 113.12 43.923 112.7 43.681ZM105.98 26.741L107.8 28.314C105.28 28.919 102.2 29.887 101.22 31.46C101.08 31.46 101.08 31.339 100.94 31.339C101.36 30.371 102.62 27.83 105.98 26.741ZM94.6401 21.659C96.0401 22.99 97.7201 25.41 97.1601 29.282C95.7601 27.83 94.0801 25.41 94.6401 21.659ZM107.8 45.738L103.6 48.158L95.9001 43.802C95.4801 43.56 94.7801 43.56 94.3601 43.802L91.5601 45.496C92.1201 39.809 92.4001 35.09 92.4001 32.67C92.4001 32.307 92.4001 31.944 92.4001 31.46C100.94 32.065 107.66 38.236 107.8 45.738ZM89.6001 32.67C89.6001 35.211 89.1801 40.777 88.6201 47.19L86.8001 48.158L79.2401 43.802C78.8201 43.56 78.1201 43.56 77.7001 43.802L70.0001 48.158L68.6001 47.311V47.19V28.072C70.5601 24.926 74.3401 22.99 78.4001 22.99C84.5601 22.99 89.6001 27.346 89.6001 32.67ZM86.6601 14.036C88.7601 12.221 91.2801 11.011 93.1001 10.164C92.2601 11.737 90.8601 13.915 88.6201 15.73C86.5201 17.545 84.0001 18.755 82.1801 19.602C83.1601 18.029 84.5601 15.972 86.6601 14.036ZM72.9401 14.036C75.0401 15.851 76.4401 18.029 77.4201 19.602C75.6001 18.876 73.0801 17.666 70.9801 15.73C68.8801 13.915 67.4801 11.737 66.5001 10.164C68.3201 11.011 70.7001 12.221 72.9401 14.036ZM68.8801 17.545C70.7001 19.118 72.6601 20.207 74.3401 21.054C72.1001 21.659 70.1401 22.627 68.4601 24.079V21.78C68.4601 19.844 68.0401 17.908 67.3401 16.093C67.9001 16.577 68.3201 17.061 68.8801 17.545ZM32.2001 21.78C32.2001 13.794 39.7601 7.26 49.0001 7.26C58.2401 7.26 65.8001 13.794 65.8001 21.78V45.738L62.3001 43.802C61.8801 43.56 61.1801 43.56 60.7601 43.802L53.2001 48.158L45.6401 43.802C45.2201 43.56 44.5201 43.56 44.1001 43.802L36.4001 48.158L32.2001 45.738V21.78ZM110.6 113.74H29.4001V47.069L35.5601 50.699C35.9801 50.941 36.6801 50.941 37.1001 50.699L44.6601 46.343L52.2201 50.699C52.6401 50.941 53.3401 50.941 53.7601 50.699L61.3201 46.343L68.8801 50.699C69.3001 50.941 70.0001 50.941 70.4201 50.699L77.9801 46.343L85.5401 50.699C85.9601 50.941 86.6601 50.941 87.0801 50.699L94.6401 46.343L102.34 50.699C102.76 50.941 103.46 50.941 103.88 50.699L110.18 47.069V113.74H110.6Z"/>
</mask>
<path d="M112.7 43.681C112.28 43.439 111.72 43.439 111.3 43.681L110.6 44.165C110.04 39.688 107.52 35.695 103.6 32.912C103.6 32.791 103.6 32.67 103.6 32.67C103.74 32.065 107.1 30.734 110.88 30.25C111.44 30.129 111.86 29.887 112 29.403C112.14 28.919 112 28.556 111.72 28.193L107.52 24.563C107.24 24.321 106.68 24.2 106.26 24.2C103.32 24.805 101.5 26.257 100.24 27.709C100.24 21.296 94.7801 18.392 94.7801 18.271C94.3601 18.029 93.9401 18.029 93.5201 18.15C93.1001 18.271 92.8201 18.634 92.6801 18.997C91.1401 23.595 92.4001 26.983 93.9401 29.161C93.1001 29.161 92.4001 29.04 91.7001 29.04C90.4401 25.652 87.6401 22.99 84.0001 21.538C85.9601 20.691 88.4801 19.36 90.7201 17.424C95.3401 13.431 96.8801 8.591 97.0201 8.349C97.1601 7.986 97.0201 7.502 96.6001 7.139C96.1801 6.776 95.7601 6.655 95.2001 6.776C94.9201 6.776 89.3201 8.228 84.7001 12.221C82.3201 14.278 80.7801 16.577 79.8001 18.392C78.8201 16.577 77.2801 14.278 74.9001 12.221C70.2801 8.47 64.5401 7.018 64.4001 6.897C63.8401 6.776 63.4201 6.897 63.0001 7.26C62.5801 7.623 62.4401 7.986 62.5801 8.47C62.5801 8.591 62.8601 9.317 63.4201 10.406C59.9201 7.018 54.7401 4.84 49.0001 4.84C38.2201 4.84 29.4001 12.463 29.4001 21.78V44.165L28.8401 43.802C28.4201 43.56 27.8601 43.56 27.4401 43.681C26.8801 43.923 26.6001 44.286 26.6001 44.77V114.95C26.6001 115.676 27.1601 116.16 28.0001 116.16H112C112.84 116.16 113.4 115.676 113.4 114.95V44.77C113.4 44.286 113.12 43.923 112.7 43.681ZM105.98 26.741L107.8 28.314C105.28 28.919 102.2 29.887 101.22 31.46C101.08 31.46 101.08 31.339 100.94 31.339C101.36 30.371 102.62 27.83 105.98 26.741ZM94.6401 21.659C96.0401 22.99 97.7201 25.41 97.1601 29.282C95.7601 27.83 94.0801 25.41 94.6401 21.659ZM107.8 45.738L103.6 48.158L95.9001 43.802C95.4801 43.56 94.7801 43.56 94.3601 43.802L91.5601 45.496C92.1201 39.809 92.4001 35.09 92.4001 32.67C92.4001 32.307 92.4001 31.944 92.4001 31.46C100.94 32.065 107.66 38.236 107.8 45.738ZM89.6001 32.67C89.6001 35.211 89.1801 40.777 88.6201 47.19L86.8001 48.158L79.2401 43.802C78.8201 43.56 78.1201 43.56 77.7001 43.802L70.0001 48.158L68.6001 47.311V47.19V28.072C70.5601 24.926 74.3401 22.99 78.4001 22.99C84.5601 22.99 89.6001 27.346 89.6001 32.67ZM86.6601 14.036C88.7601 12.221 91.2801 11.011 93.1001 10.164C92.2601 11.737 90.8601 13.915 88.6201 15.73C86.5201 17.545 84.0001 18.755 82.1801 19.602C83.1601 18.029 84.5601 15.972 86.6601 14.036ZM72.9401 14.036C75.0401 15.851 76.4401 18.029 77.4201 19.602C75.6001 18.876 73.0801 17.666 70.9801 15.73C68.8801 13.915 67.4801 11.737 66.5001 10.164C68.3201 11.011 70.7001 12.221 72.9401 14.036ZM68.8801 17.545C70.7001 19.118 72.6601 20.207 74.3401 21.054C72.1001 21.659 70.1401 22.627 68.4601 24.079V21.78C68.4601 19.844 68.0401 17.908 67.3401 16.093C67.9001 16.577 68.3201 17.061 68.8801 17.545ZM32.2001 21.78C32.2001 13.794 39.7601 7.26 49.0001 7.26C58.2401 7.26 65.8001 13.794 65.8001 21.78V45.738L62.3001 43.802C61.8801 43.56 61.1801 43.56 60.7601 43.802L53.2001 48.158L45.6401 43.802C45.2201 43.56 44.5201 43.56 44.1001 43.802L36.4001 48.158L32.2001 45.738V21.78ZM110.6 113.74H29.4001V47.069L35.5601 50.699C35.9801 50.941 36.6801 50.941 37.1001 50.699L44.6601 46.343L52.2201 50.699C52.6401 50.941 53.3401 50.941 53.7601 50.699L61.3201 46.343L68.8801 50.699C69.3001 50.941 70.0001 50.941 70.4201 50.699L77.9801 46.343L85.5401 50.699C85.9601 50.941 86.6601 50.941 87.0801 50.699L94.6401 46.343L102.34 50.699C102.76 50.941 103.46 50.941 103.88 50.699L110.18 47.069V113.74H110.6Z" fill="#718096"/>
<path d="M112.7 43.681C112.28 43.439 111.72 43.439 111.3 43.681L110.6 44.165C110.04 39.688 107.52 35.695 103.6 32.912C103.6 32.791 103.6 32.67 103.6 32.67C103.74 32.065 107.1 30.734 110.88 30.25C111.44 30.129 111.86 29.887 112 29.403C112.14 28.919 112 28.556 111.72 28.193L107.52 24.563C107.24 24.321 106.68 24.2 106.26 24.2C103.32 24.805 101.5 26.257 100.24 27.709C100.24 21.296 94.7801 18.392 94.7801 18.271C94.3601 18.029 93.9401 18.029 93.5201 18.15C93.1001 18.271 92.8201 18.634 92.6801 18.997C91.1401 23.595 92.4001 26.983 93.9401 29.161C93.1001 29.161 92.4001 29.04 91.7001 29.04C90.4401 25.652 87.6401 22.99 84.0001 21.538C85.9601 20.691 88.4801 19.36 90.7201 17.424C95.3401 13.431 96.8801 8.591 97.0201 8.349C97.1601 7.986 97.0201 7.502 96.6001 7.139C96.1801 6.776 95.7601 6.655 95.2001 6.776C94.9201 6.776 89.3201 8.228 84.7001 12.221C82.3201 14.278 80.7801 16.577 79.8001 18.392C78.8201 16.577 77.2801 14.278 74.9001 12.221C70.2801 8.47 64.5401 7.018 64.4001 6.897C63.8401 6.776 63.4201 6.897 63.0001 7.26C62.5801 7.623 62.4401 7.986 62.5801 8.47C62.5801 8.591 62.8601 9.317 63.4201 10.406C59.9201 7.018 54.7401 4.84 49.0001 4.84C38.2201 4.84 29.4001 12.463 29.4001 21.78V44.165L28.8401 43.802C28.4201 43.56 27.8601 43.56 27.4401 43.681C26.8801 43.923 26.6001 44.286 26.6001 44.77V114.95C26.6001 115.676 27.1601 116.16 28.0001 116.16H112C112.84 116.16 113.4 115.676 113.4 114.95V44.77C113.4 44.286 113.12 43.923 112.7 43.681ZM105.98 26.741L107.8 28.314C105.28 28.919 102.2 29.887 101.22 31.46C101.08 31.46 101.08 31.339 100.94 31.339C101.36 30.371 102.62 27.83 105.98 26.741ZM94.6401 21.659C96.0401 22.99 97.7201 25.41 97.1601 29.282C95.7601 27.83 94.0801 25.41 94.6401 21.659ZM107.8 45.738L103.6 48.158L95.9001 43.802C95.4801 43.56 94.7801 43.56 94.3601 43.802L91.5601 45.496C92.1201 39.809 92.4001 35.09 92.4001 32.67C92.4001 32.307 92.4001 31.944 92.4001 31.46C100.94 32.065 107.66 38.236 107.8 45.738ZM89.6001 32.67C89.6001 35.211 89.1801 40.777 88.6201 47.19L86.8001 48.158L79.2401 43.802C78.8201 43.56 78.1201 43.56 77.7001 43.802L70.0001 48.158L68.6001 47.311V47.19V28.072C70.5601 24.926 74.3401 22.99 78.4001 22.99C84.5601 22.99 89.6001 27.346 89.6001 32.67ZM86.6601 14.036C88.7601 12.221 91.2801 11.011 93.1001 10.164C92.2601 11.737 90.8601 13.915 88.6201 15.73C86.5201 17.545 84.0001 18.755 82.1801 19.602C83.1601 18.029 84.5601 15.972 86.6601 14.036ZM72.9401 14.036C75.0401 15.851 76.4401 18.029 77.4201 19.602C75.6001 18.876 73.0801 17.666 70.9801 15.73C68.8801 13.915 67.4801 11.737 66.5001 10.164C68.3201 11.011 70.7001 12.221 72.9401 14.036ZM68.8801 17.545C70.7001 19.118 72.6601 20.207 74.3401 21.054C72.1001 21.659 70.1401 22.627 68.4601 24.079V21.78C68.4601 19.844 68.0401 17.908 67.3401 16.093C67.9001 16.577 68.3201 17.061 68.8801 17.545ZM32.2001 21.78C32.2001 13.794 39.7601 7.26 49.0001 7.26C58.2401 7.26 65.8001 13.794 65.8001 21.78V45.738L62.3001 43.802C61.8801 43.56 61.1801 43.56 60.7601 43.802L53.2001 48.158L45.6401 43.802C45.2201 43.56 44.5201 43.56 44.1001 43.802L36.4001 48.158L32.2001 45.738V21.78ZM110.6 113.74H29.4001V47.069L35.5601 50.699C35.9801 50.941 36.6801 50.941 37.1001 50.699L44.6601 46.343L52.2201 50.699C52.6401 50.941 53.3401 50.941 53.7601 50.699L61.3201 46.343L68.8801 50.699C69.3001 50.941 70.0001 50.941 70.4201 50.699L77.9801 46.343L85.5401 50.699C85.9601 50.941 86.6601 50.941 87.0801 50.699L94.6401 46.343L102.34 50.699C102.76 50.941 103.46 50.941 103.88 50.699L110.18 47.069V113.74H110.6Z" stroke="#4A5568" mask="url(#path-1-outside-1_165_124)"/>
<path d="M49 28.08C50.6128 28.08 54.1287 28.0196 57.2461 27.5325C58.8023 27.2893 60.2784 26.9371 61.3717 26.4227C62.4505 25.9152 63.25 25.2025 63.25 24.2C63.25 23.1976 62.4505 22.4848 61.3717 21.9773C60.2784 21.4629 58.8023 21.1107 57.2461 20.8675C54.1287 20.3804 50.6128 20.32 49 20.32C47.3872 20.32 43.8713 20.3804 40.7539 20.8675C39.1977 21.1107 37.7216 21.4629 36.6283 21.9773C35.5495 22.4848 34.75 23.1976 34.75 24.2C34.75 25.2025 35.5495 25.9152 36.6283 26.4227C37.7216 26.9371 39.1977 27.2893 40.7539 27.5325C43.8713 28.0196 47.3872 28.08 49 28.08ZM49 23.24C53.5924 23.24 56.9789 23.7556 58.7452 24.2C56.9789 24.6444 53.5924 25.16 49 25.16C44.4076 25.16 41.0211 24.6444 39.2548 24.2C41.0211 23.7556 44.4076 23.24 49 23.24Z" fill="#718096" stroke="#4A5568" stroke-width="0.5"/>
<path d="M63.25 39.93C63.25 38.9276 62.4505 38.2148 61.3717 37.7073C60.2784 37.1929 58.8023 36.8407 57.2461 36.5975C54.1287 36.1104 50.6128 36.05 49 36.05C47.3872 36.05 43.8713 36.1104 40.7539 36.5975C39.1977 36.8407 37.7216 37.1929 36.6283 37.7073C35.5495 38.2148 34.75 38.9276 34.75 39.93C34.75 40.9325 35.5495 41.6452 36.6283 42.1527C37.7216 42.6671 39.1977 43.0193 40.7539 43.2625C43.8713 43.7496 47.3872 43.81 49 43.81C50.6128 43.81 54.1287 43.7496 57.2461 43.2625C58.8023 43.0193 60.2784 42.6671 61.3717 42.1527C62.4505 41.6452 63.25 40.9325 63.25 39.93ZM49 38.97C53.5924 38.97 56.9789 39.4856 58.7452 39.93C56.9789 40.3744 53.5924 40.89 49 40.89C44.4076 40.89 41.0211 40.3744 39.2548 39.93C41.0211 39.4856 44.4076 38.97 49 38.97Z" fill="#718096" stroke="#4A5568" stroke-width="0.5"/>
<path d="M79.7999 34.13H86.7999C87.2667 34.13 87.6789 33.9952 87.9784 33.7364C88.2812 33.4747 88.4499 33.1018 88.4499 32.67C88.4499 32.2382 88.2812 31.8653 87.9784 31.6036C87.6789 31.3447 87.2667 31.21 86.7999 31.21H79.7999C79.3331 31.21 78.9209 31.3447 78.6214 31.6036C78.3186 31.8653 78.1499 32.2382 78.1499 32.67C78.1499 33.1018 78.3186 33.4747 78.6214 33.7364C78.9209 33.9952 79.3331 34.13 79.7999 34.13Z" fill="#718096" stroke="#4A5568" stroke-width="0.5"/>
<path d="M79.8 39.68H71.4C70.9332 39.68 70.521 39.8147 70.2215 40.0736C69.9187 40.3353 69.75 40.7082 69.75 41.14C69.75 41.5718 69.9187 41.9447 70.2215 42.2064C70.521 42.4652 70.9332 42.6 71.4 42.6H79.8C80.2668 42.6 80.679 42.4652 80.9785 42.2064C81.2813 41.9447 81.45 41.5718 81.45 41.14C81.45 40.7082 81.2813 40.3353 80.9785 40.0736C80.679 39.8147 80.2668 39.68 79.8 39.68Z" fill="#718096" stroke="#4A5568" stroke-width="0.5"/>
<path d="M102.2 62.67H37.7999C37.3331 62.67 36.9209 62.8048 36.6214 63.0636C36.3186 63.3253 36.1499 63.6982 36.1499 64.13V95.59C36.1499 96.0218 36.3186 96.3947 36.6214 96.6564C36.9209 96.9152 37.3331 97.05 37.7999 97.05H102.2C102.667 97.05 103.079 96.9152 103.378 96.6564C103.681 96.3947 103.85 96.0218 103.85 95.59V64.13C103.85 63.6982 103.681 63.3253 103.378 63.0636C103.079 62.8048 102.667 62.67 102.2 62.67ZM100.55 94.13H39.4499V65.59H100.55V94.13Z" fill="#718096" stroke="#4A5568" stroke-width="0.5"/>
</svg>
