<svg width="157" height="115" viewBox="0 0 157 115" fill="none" xmlns="http://www.w3.org/2000/svg">
<g clip-path="url(#clip0_165_155)">
<path d="M143.529 40.5525V98.6579C143.529 99.0606 143.307 99.4461 142.905 99.7402C142.504 100.034 141.937 100.224 141.3 100.224C140.663 100.224 140.096 100.034 139.695 99.7402C139.293 99.4461 139.071 99.0605 139.071 98.6579V40.5525C139.071 40.15 139.293 39.7644 139.695 39.4703C140.096 39.1763 140.663 38.9868 141.3 38.9868C141.937 38.9868 142.504 39.1762 142.905 39.4702C143.307 39.7643 143.529 40.1498 143.529 40.5525Z" fill="#2D3748" stroke="#2D3748" stroke-width="0.5"/>
<path d="M25.7838 111.619H26.2635L25.9887 111.225C25.3795 110.354 25.0397 109.374 25.0397 108.342V93.8157C25.0397 92.0794 26.0035 90.4832 27.6026 89.3119C29.2014 88.1407 31.4208 87.4079 33.8791 87.4079H57.0161C59.4744 87.4079 61.6938 88.1407 63.2926 89.3119C64.8916 90.4832 65.8555 92.0794 65.8555 93.8157V108.342C65.8555 110.078 64.8916 111.675 63.2926 112.846C61.6938 114.017 59.4744 114.75 57.0161 114.75H14.0477C13.4108 114.75 12.8441 114.561 12.4427 114.267C12.0411 113.972 11.8188 113.587 11.8188 113.184C11.8188 112.782 12.041 112.396 12.4426 112.102C12.844 111.808 13.4106 111.619 14.0477 111.619H25.7838ZM29.7474 100.224H29.4974V100.474V108.342C29.4974 109.276 30.0162 110.101 30.8112 110.683C31.6063 111.265 32.6923 111.619 33.8791 111.619H57.0161C58.2029 111.619 59.2888 111.265 60.084 110.683C60.8072 110.153 61.3018 109.423 61.3852 108.592H61.398V108.342V93.8157C61.398 92.8822 60.8792 92.0573 60.0843 91.475C59.2891 90.8926 58.2032 90.5394 57.0164 90.5394H33.8794C32.6926 90.5394 31.6066 90.8926 30.8115 91.475C30.0166 92.0573 29.4977 92.8822 29.4977 93.8157V96.8421V97.0921H29.7477H55.3633C56.0002 97.0921 56.5669 97.2815 56.9683 97.5755C57.3699 97.8696 57.5921 98.2552 57.5921 98.6579C57.5921 99.0605 57.3699 99.4461 56.9684 99.7402C56.567 100.034 56.0004 100.224 55.3633 100.224H29.7474Z" fill="#2D3748" stroke="#2D3748" stroke-width="0.5"/>
<path d="M2.47888 111.619H5.78416C6.42126 111.619 6.98793 111.808 7.38931 112.102C7.79084 112.396 8.01304 112.782 8.01304 113.184C8.01304 113.587 7.79084 113.973 7.38931 114.267C6.98793 114.561 6.42126 114.75 5.78416 114.75H2.47888C1.84195 114.75 1.27527 114.561 0.873838 114.267C0.472258 113.972 0.25 113.587 0.25 113.184C0.25 112.782 0.472258 112.396 0.873838 112.102C1.27527 111.808 1.84195 111.619 2.47888 111.619Z" fill="#2D3748" stroke="#2D3748" stroke-width="0.5"/>
<path d="M131.134 21.7896V22.0396H131.384H134.689C140.793 22.0396 146.317 23.8584 150.31 26.7831C154.303 29.7079 156.75 33.7251 156.75 38.1315V108.342C156.75 110.078 155.786 111.675 154.187 112.846C152.588 114.017 150.369 114.75 147.91 114.75H108.247C107.61 114.75 107.043 114.56 106.642 114.266C106.24 113.972 106.018 113.586 106.018 113.184C106.018 112.781 106.24 112.396 106.642 112.102C107.043 111.808 107.61 111.618 108.247 111.618H147.91C149.097 111.618 150.183 111.265 150.978 110.682C151.773 110.1 152.292 109.275 152.292 108.342V38.1313C152.292 34.528 150.291 31.2821 147.102 28.9463C143.913 26.6102 139.521 25.1708 134.69 25.1708H98.3319C89.7591 25.1708 82.4174 29.6596 80.9758 35.955C80.883 36.3589 80.5689 36.7212 80.0972 36.9673C79.6275 37.2125 79.0218 37.33 78.3949 37.2533C77.7671 37.1761 77.2573 36.9216 76.9347 36.59C76.6143 36.2608 76.4822 35.8632 76.5732 35.4659L76.3295 35.4101L76.5732 35.4659C78.3441 27.7327 87.4521 22.0394 98.3316 22.0394H101.637H101.887V21.7894V6.65787C101.887 4.92152 102.851 3.32532 104.45 2.15399C106.049 0.98286 108.268 0.25 110.726 0.25H122.295C124.753 0.25 126.972 0.98286 128.571 2.15399C130.17 3.32532 131.134 4.92152 131.134 6.65787V21.7896ZM126.426 22.0396H126.676V21.7896V6.65787C126.676 5.72431 126.157 4.89944 125.363 4.31718C124.567 3.73472 123.481 3.38148 122.295 3.38148H110.726C109.539 3.38148 108.454 3.73472 107.658 4.31718C106.863 4.89944 106.345 5.72431 106.345 6.65787V21.7896V22.0396H106.595H126.426Z" fill="#2D3748" stroke="#2D3748" stroke-width="0.5"/>
<path d="M86.5131 70.2104V70.4604H86.7631H87.5895C91.8702 70.4604 95.7422 71.7363 98.5381 73.7842C101.334 75.8324 103.04 78.6391 103.04 81.7104V108.342C103.04 110.078 102.076 111.674 100.476 112.846C98.8776 114.017 96.6582 114.75 94.2001 114.75H71.8895C71.2526 114.75 70.6859 114.56 70.2845 114.266C69.8829 113.972 69.6606 113.587 69.6606 113.184C69.6606 112.781 69.8828 112.396 70.2844 112.102C70.6857 111.808 71.2524 111.618 71.8895 111.618H94.2001C95.3869 111.618 96.4728 111.265 97.268 110.683C98.0629 110.1 98.5817 109.275 98.5817 108.342V81.7104C98.5817 79.4419 97.3215 77.4065 95.3296 75.9474C93.3374 74.4882 90.5989 73.5919 87.5895 73.5919H61.1473C58.1381 73.5919 55.3995 74.4882 53.4073 75.9474C51.4153 77.4065 50.155 79.4419 50.155 81.7104C50.155 82.1131 49.9328 82.4987 49.5312 82.7928C49.1298 83.0867 48.5631 83.2762 47.9261 83.2762C47.2892 83.2762 46.7225 83.0867 46.3211 82.7928C45.9195 82.4987 45.6973 82.1131 45.6973 81.7104C45.6973 78.6391 47.4026 75.8324 50.1987 73.7842C52.9946 71.7363 56.8666 70.4604 61.1473 70.4604H61.9737H62.2237V70.2104V47.8157C62.2237 46.0794 63.1875 44.4832 64.7866 43.3119C66.3854 42.1407 68.6048 41.4079 71.0631 41.4079H77.6737C80.1318 41.4079 82.3512 42.1407 83.9501 43.3119C85.5492 44.4832 86.5131 46.0794 86.5131 47.8157V70.2104ZM66.6817 70.2104V70.4604H66.9317H81.8053H81.8056H82.0556V70.2104V47.8157C82.0556 46.8822 81.5368 46.0573 80.7419 45.475C79.9467 44.8926 78.8608 44.5394 77.674 44.5394H71.0634C69.8766 44.5394 68.7906 44.8926 67.9955 45.475C67.2006 46.0573 66.6817 46.8822 66.6817 47.8157V70.2104Z" fill="#2D3748" stroke="#2D3748" stroke-width="0.5"/>
<path d="M90.6448 81.7107V103.5C90.6448 103.903 90.4226 104.288 90.0212 104.582C89.6198 104.876 89.0532 105.066 88.4159 105.066C87.7786 105.066 87.212 104.876 86.8106 104.582C86.4092 104.288 86.187 103.903 86.187 103.5V81.7107C86.187 81.308 86.4092 80.9224 86.8106 80.6283C87.212 80.3343 87.7786 80.1449 88.4159 80.1449C89.053 80.1449 89.6197 80.3343 90.021 80.6283C90.4226 80.9224 90.6448 81.308 90.6448 81.7107Z" fill="#2D3748" stroke="#2D3748" stroke-width="0.5"/>
</g>
<defs>
<clipPath id="clip0_165_155">
<rect width="157" height="115" fill="white"/>
</clipPath>
</defs>
</svg>
