<svg width="110" height="105" viewBox="0 0 110 105" fill="none" xmlns="http://www.w3.org/2000/svg">
<g opacity="0.5" clip-path="url(#clip0_156_93)">
<path d="M16.9527 59.2293L26.5745 51.5519C27.2604 51.0053 27.351 50.0294 26.7783 49.3747C26.2057 48.7169 25.1768 48.6335 24.5007 49.1801L14.8757 56.8606C11.8992 59.2354 7.66419 59.0903 5.23772 56.5332C3.80448 55.0231 3.09919 53.0466 3.25125 50.9651C3.40007 48.9424 4.37713 47.0709 5.93331 45.8263L55.0192 6.64588L103.798 45.5854C106.709 47.9078 107.619 51.9657 105.907 55.0231C104.629 57.3115 102.352 58.6765 99.8183 58.6765C98.2589 58.6765 96.7836 58.1546 95.5445 57.1694L85.7901 49.384C85.1139 48.8374 84.0948 48.9238 83.5124 49.5754C82.9398 50.2301 83.0336 51.2029 83.7162 51.7496L93.4707 59.5381C95.2954 60.9957 97.4889 61.7647 99.8183 61.7647C103.568 61.7647 106.91 59.7882 108.767 56.4746C111.181 52.1572 109.935 46.4563 105.872 43.2137L56.0545 3.44647C55.4527 2.96779 54.5824 2.96779 53.9807 3.44647L3.86272 43.4576C1.6336 45.2396 0.232719 47.8985 0.0256602 50.7521C-0.184634 53.6365 0.840954 56.4993 2.83713 58.6054C6.43801 62.3947 12.6368 62.6726 16.9527 59.2293Z" fill="#4A5568"/>
<path d="M17.794 66.3971C16.9011 66.3971 16.1764 67.0888 16.1764 67.9412V97.2794C16.1764 99.8334 18.3537 101.912 21.0293 101.912H88.9705C91.6461 101.912 93.8234 99.8334 93.8234 97.2794V67.9412C93.8234 67.0888 93.0987 66.3971 92.2058 66.3971C91.3129 66.3971 90.5882 67.0888 90.5882 67.9412V97.2794C90.5882 98.1318 89.8602 98.8235 88.9705 98.8235H21.0293C20.1396 98.8235 19.4117 98.1318 19.4117 97.2794V67.9412C19.4117 67.0888 18.687 66.3971 17.794 66.3971Z" fill="#4A5568"/>
<path d="M66.3235 80.2941C68.9991 80.2941 71.1765 78.2157 71.1765 75.6618V57.1324C71.1765 54.5784 68.9991 52.5 66.3235 52.5H46.9118C44.2362 52.5 42.0588 54.5784 42.0588 57.1324V75.6618C42.0588 78.2157 44.2362 80.2941 46.9118 80.2941H66.3235ZM45.2941 75.6618V57.1324C45.2941 56.28 46.0221 55.5882 46.9118 55.5882H66.3235C67.2133 55.5882 67.9412 56.28 67.9412 57.1324V75.6618C67.9412 76.5141 67.2133 77.2059 66.3235 77.2059H46.9118C46.0221 77.2059 45.2941 76.5141 45.2941 75.6618Z" fill="#4A5568"/>
</g>
<defs>
<clipPath id="clip0_156_93">
<rect width="110" height="105" fill="white"/>
</clipPath>
</defs>
</svg>
