<svg width="24" height="24" viewBox="0 0 24 24" fill="none" xmlns="http://www.w3.org/2000/svg">
<path d="M21.75 5.25H18V3.9375C18 3.83437 17.9156 3.75 17.8125 3.75H16.5C16.3969 3.75 16.3125 3.83437 16.3125 3.9375V5.25H12.8438V3.9375C12.8438 3.83437 12.7594 3.75 12.6562 3.75H11.3438C11.2406 3.75 11.1562 3.83437 11.1562 3.9375V5.25H7.6875V3.9375C7.6875 3.83437 7.60313 3.75 7.5 3.75H6.1875C6.08437 3.75 6 3.83437 6 3.9375V5.25H2.25C1.83516 5.25 1.5 5.58516 1.5 6V19.5C1.5 19.9148 1.83516 20.25 2.25 20.25H21.75C22.1648 20.25 22.5 19.9148 22.5 19.5V6C22.5 5.58516 22.1648 5.25 21.75 5.25ZM15.4922 17.25H14.4633C14.3648 17.25 14.2852 17.1727 14.2781 17.0742C14.1891 15.8883 13.2 14.9531 12 14.9531C10.8 14.9531 9.81094 15.8906 9.72187 17.0742C9.71484 17.1727 9.63516 17.25 9.53672 17.25H8.50781C8.48238 17.25 8.45721 17.2449 8.43383 17.2349C8.41044 17.2249 8.38934 17.2102 8.3718 17.1918C8.35426 17.1734 8.34065 17.1516 8.3318 17.1278C8.32295 17.1039 8.31904 17.0785 8.32031 17.0531C8.38594 15.8039 9.07031 14.7164 10.0688 14.0977C9.62845 13.6137 9.38516 12.9824 9.38672 12.3281C9.38672 10.8773 10.5562 9.70312 11.9977 9.70312C13.4391 9.70312 14.6086 10.8773 14.6086 12.3281C14.6086 13.0102 14.3508 13.6289 13.9266 14.0977C14.9273 14.7188 15.6094 15.8039 15.675 17.0531C15.6844 17.1609 15.6 17.25 15.4922 17.25ZM12 11.1094C11.332 11.1094 10.7883 11.6555 10.7883 12.3281C10.7883 13.0008 11.332 13.5469 12 13.5469C12.668 13.5469 13.2117 13.0008 13.2117 12.3281C13.2117 11.6555 12.668 11.1094 12 11.1094Z" fill="#A0AEC0"/>
</svg>
